HIERARCHY
ROOT Hips
{
	OFFSET 0.000000 0.000000 0.000000
	CHANNELS 6 Xposition Yposition Zposition Zrotation Yrotation Xrotation 
	JOINT LHipJoint
	{
		OFFSET 0.000000 0.000000 0.000000
		CHANNELS 3 Zrotation Yrotation Xrotation
		JOINT LeftUpLeg
		{
			OFFSET 1.363060 -1.794630 0.839290
			CHANNELS 3 Zrotation Yrotation Xrotation
			JOINT LeftLeg
			{
				OFFSET 2.448110 -6.726130 0.000000
				CHANNELS 3 Zrotation Yrotation Xrotation
				JOINT LeftFoot
				{
					OFFSET 2.562200 -7.039590 0.000000
					CHANNELS 3 Zrotation Yrotation Xrotation
					JOINT LeftToeBase
					{
						OFFSET 0.157640 -0.433110 2.322550
						CHANNELS 3 Zrotation Yrotation Xrotation
						End Site
						{
							OFFSET 0.000000 0.000000 0.000000
						}
					}
				}
			}
		}
	}
	JOINT RHipJoint
	{
		OFFSET 0.000000 0.000000 0.000000
		CHANNELS 3 Zrotation Yrotation Xrotation
		JOINT RightUpLeg
		{
			OFFSET -1.305520 -1.794630 0.839290
			CHANNELS 3 Zrotation Yrotation Xrotation
			JOINT RightLeg
			{
				OFFSET -2.542530 -6.985550 0.000000
				CHANNELS 3 Zrotation Yrotation Xrotation
				JOINT RightFoot
				{
					OFFSET -2.568260 -7.056230 0.000000
					CHANNELS 3 Zrotation Yrotation Xrotation
					JOINT RightToeBase
					{
						OFFSET -0.164730 -0.452590 2.363150
						CHANNELS 3 Zrotation Yrotation Xrotation
						End Site
						{
							OFFSET 0.000000 0.000000 0.000000
						}
					}
				}
			}
		}
	}
	JOINT LowerBack
	{
		OFFSET 0.000000 0.000000 0.000000
		CHANNELS 3 Zrotation Yrotation Xrotation
		JOINT Spine
		{
			OFFSET 0.028270 2.035590 -0.193380
			CHANNELS 3 Zrotation Yrotation Xrotation
			JOINT Spine1
			{
				OFFSET 0.056720 2.048850 -0.042750
				CHANNELS 3 Zrotation Yrotation Xrotation
				JOINT Neck
				{
					OFFSET 0.000000 0.000000 0.000000
					CHANNELS 3 Zrotation Yrotation Xrotation
					JOINT Neck1
					{
						OFFSET -0.054170 1.746240 0.172020
						CHANNELS 3 Zrotation Yrotation Xrotation
						JOINT Head
						{
							OFFSET 0.104070 1.761360 -0.123970
							CHANNELS 3 Zrotation Yrotation Xrotation
							End Site
							{
								OFFSET 0.000000 0.000000 0.000000
							}
						}
					}
				}
				JOINT LeftShoulder
				{
					OFFSET 0.000000 0.000000 0.000000
					CHANNELS 3 Zrotation Yrotation Xrotation
					JOINT LeftArm
					{
						OFFSET 3.362410 1.200890 -0.311210
						CHANNELS 3 Zrotation Yrotation Xrotation
						JOINT LeftForeArm
						{
							OFFSET 4.983000 -0.000000 -0.000000
							CHANNELS 3 Zrotation Yrotation Xrotation
							JOINT LeftHand
							{
								OFFSET 3.483560 -0.000000 -0.000000
								CHANNELS 3 Zrotation Yrotation Xrotation
								JOINT LeftFingerBase
								{
									OFFSET 0.000000 0.000000 0.000000
									CHANNELS 3 Zrotation Yrotation Xrotation
									JOINT LeftHandIndex1
									{
										OFFSET 0.715260 -0.000000 -0.000000
										CHANNELS 3 Zrotation Yrotation Xrotation
										End Site
										{
											OFFSET 0.000000 0.000000 0.000000
										}
									}
								}
								JOINT LThumb
								{
									OFFSET 0.000000 0.000000 0.000000
									CHANNELS 3 Zrotation Yrotation Xrotation
									End Site
									{
										OFFSET 0.000000 0.000000 0.000000
									}
								}
							}
						}
					}
				}
				JOINT RightShoulder
				{
					OFFSET 0.000000 0.000000 0.000000
					CHANNELS 3 Zrotation Yrotation Xrotation
					JOINT RightArm
					{
						OFFSET -3.136600 1.374050 -0.404650
						CHANNELS 3 Zrotation Yrotation Xrotation
						JOINT RightForeArm
						{
							OFFSET -5.241900 -0.000000 -0.000000
							CHANNELS 3 Zrotation Yrotation Xrotation
							JOINT RightHand
							{
								OFFSET -3.444170 -0.000000 -0.000000
								CHANNELS 3 Zrotation Yrotation Xrotation
								JOINT RightFingerBase
								{
									OFFSET 0.000000 0.000000 0.000000
									CHANNELS 3 Zrotation Yrotation Xrotation
									JOINT RightHandIndex1
									{
										OFFSET -0.622530 -0.000000 -0.000000
										CHANNELS 3 Zrotation Yrotation Xrotation
										End Site
										{
											OFFSET 0.000000 0.000000 0.000000
										}
									}
								}
								JOINT RThumb
								{
									OFFSET 0.000000 0.000000 0.000000
									CHANNELS 3 Zrotation Yrotation Xrotation
									End Site
									{
										OFFSET 0.000000 0.000000 0.000000
									}
								}
							}
						}
					}
				}
			}
		}
	}
}
MOTION
Frames: 8
Frame Time: 0.008333
-6.559399 15.044508 1.042804 -175.856327 -51.757040 175.104247 5.276653 -0.217351 -3.952649 -2.948089 13.301257 -45.516631 6.520461 16.316385 47.265548 -0.379909 5.816401 16.265768 1.766400 -8.361600 -23.817900 -4.842609 -1.489235 -0.746457 -5.823053 0.900470 -10.458752 -12.525102 -17.482987 64.805527 1.491991 -8.307850 9.335125 -7.156400 15.462200 -49.463300 1.927523 3.758733 34.257676 0.328160 4.277118 -1.611517 0.112140 1.205952 1.620254 -6.236023 1.371898 -10.630370 3.750161 2.094787 3.492948 6.013300 1.980900 -0.458700 -0.194622 -0.316388 1.248892 -74.841514 -1.035115 23.838287 60.834322 -56.094502 -39.469032 -0.773762 -0.753715 -29.276594 32.712875 17.675980 11.538900 -7.125000 0.000000 0.000000 5.840000 50.987200 0.864000 -2.058291 1.953780 1.137333 76.775848 12.227419 3.041109 -25.393787 36.937508 -12.799924 1.402500 -1.135677 -21.795537 -36.671613 33.438789 -23.776800 7.125000 0.000000 0.000000 -2.377700 11.391300 -2.802700 
-7.074651 14.971604 1.048395 -177.187384 -51.616128 175.543738 5.219765 -0.180783 -3.797003 -3.880340 13.254981 -45.742905 7.883157 17.329955 51.700097 -0.837339 6.919430 14.262747 1.562900 -7.889300 -22.378300 -4.983725 -1.377936 -0.942760 -6.522145 1.656703 -11.322972 -13.452454 -17.866312 67.260606 2.491776 -12.019917 6.005718 -5.792700 14.224400 -44.144000 0.751092 3.975221 34.137270 0.302689 4.226149 -1.600334 0.763531 1.108343 1.452146 -7.110273 1.420787 -9.915236 4.266805 2.179621 3.487894 6.608400 2.085800 -0.797100 -0.440778 -0.316996 1.319962 -72.768750 -0.882636 24.625585 60.627278 -56.041578 -39.409498 -0.776523 -0.817923 -29.447489 32.853595 17.404570 11.480800 -7.125000 0.000000 0.000000 6.036900 50.771200 0.861200 -2.112777 1.909856 1.190447 76.911753 11.152929 2.117100 -24.982208 36.660130 -12.537604 1.451822 -1.116699 -21.362473 -37.325789 33.247946 -24.208500 7.125000 0.000000 0.000000 -2.815400 11.421200 -3.320700 
-7.592811 15.018679 1.053538 -178.649775 -51.429117 176.042556 5.025515 -0.187940 -3.567200 -4.990813 13.094378 -44.840847 8.637042 17.912084 54.716295 -0.663745 5.094354 11.041694 1.821400 -8.483700 -24.193200 -5.051320 -1.251623 -1.147763 -6.872547 1.633944 -12.454654 -14.212083 -18.174159 69.083655 3.556717 -16.214659 4.263613 -3.701100 11.751600 -34.858800 -0.276115 4.206285 34.108615 0.277707 4.206149 -1.583934 1.069714 1.024521 1.522970 -7.042146 1.362117 -9.971337 4.100440 2.121993 3.710104 6.415700 2.023600 -0.615400 -0.548296 -0.318804 1.330394 -70.565935 -1.001163 25.474828 60.357623 -55.953388 -39.291615 -0.789222 -0.871565 -29.482882 33.455006 16.931164 11.480100 -7.125000 0.000000 0.000000 6.721400 50.392000 0.896700 -2.016629 1.834745 1.154829 77.033100 10.046290 1.305717 -24.945283 36.680387 -12.523973 1.512079 -1.064636 -21.568200 -37.952841 32.846772 -24.497200 7.125000 0.000000 0.000000 -3.305400 11.200700 -3.890400 
-8.108622 15.101088 1.064049 179.524021 -51.195345 176.816718 4.786989 -0.191569 -3.328802 -6.625601 13.341699 -43.745375 9.204584 18.315005 57.040857 -0.450550 3.499293 8.020225 1.344500 -7.341200 -20.730100 -5.121893 -1.139411 -1.371187 -7.368973 1.264187 -13.701559 -14.658571 -18.420114 70.622938 3.760964 -16.675572 0.820605 -0.727300 5.449200 -15.194300 -1.456328 4.395603 34.199983 0.231826 4.025523 -1.551539 1.404535 0.876994 1.488278 -7.494296 1.575085 -9.523406 4.133998 2.469517 3.699756 6.562700 2.215800 -0.878900 -0.784288 -0.286382 1.389807 -68.338969 -1.141767 25.963402 59.616020 -55.729627 -38.805238 -0.788151 -0.927375 -29.086745 33.643553 16.289573 11.204200 -7.125000 0.000000 0.000000 6.963600 49.764500 0.821500 -2.021864 1.798686 1.203556 77.077716 9.296030 0.577438 -24.653754 36.484338 -12.342910 1.554817 -1.029857 -21.718710 -38.143950 32.471900 -24.454100 7.125000 0.000000 0.000000 -3.543500 10.853600 -4.154500 
-8.629464 15.170079 1.085853 177.006137 -50.808873 178.062153 4.479794 -0.183688 -3.045975 -8.805989 13.916930 -42.333498 9.659172 18.609092 58.929698 -0.279495 2.427140 5.488513 1.502100 -7.741300 -21.930900 -5.222489 -1.064162 -1.629501 -8.253327 0.445704 -15.201609 -15.057241 -18.631384 71.774156 3.831278 -16.945479 -0.894248 -0.238800 3.145000 -8.682700 -2.901426 4.632500 34.358933 0.172680 3.752516 -1.520672 1.527967 0.675724 1.737659 -7.236454 1.686367 -10.027251 3.695060 2.672781 4.035718 6.147600 2.254500 -0.487300 -0.934403 -0.286221 1.358211 -66.371412 -1.408272 25.888540 58.347241 -55.328346 -37.895822 -0.770375 -0.987654 -28.041809 32.750670 15.860964 10.644300 -7.125000 0.000000 0.000000 6.076600 49.224600 0.635200 -1.869418 1.741863 1.161445 76.796272 9.189265 -0.344616 -23.539799 35.549624 -11.619143 1.574851 -1.063549 -21.169615 -37.839718 32.620144 -24.330200 7.125000 0.000000 0.000000 -3.347700 10.926400 -3.927600 
-9.127273 15.208879 1.124206 177.744602 -50.323925 177.159717 4.400960 -0.175386 -2.914478 -8.978564 14.521960 -41.464486 10.236790 18.815346 60.764111 -0.028097 1.252451 2.507689 0.645500 -5.139800 -14.307900 -5.165144 -0.873138 -1.750195 -6.609621 -0.615518 -17.525121 -15.312721 -18.955644 72.881525 3.633696 -16.175455 -1.901713 -0.553700 4.766800 -13.244700 -2.112786 4.331574 34.454318 0.186988 3.618860 -1.518705 1.321957 0.641908 1.604203 -7.548861 1.983409 -9.531141 3.440747 3.184384 4.028054 6.149400 2.519000 -0.764200 -1.125686 -0.288555 1.391412 -64.830413 -1.523944 25.582723 56.865082 -54.845565 -36.764498 -0.743174 -1.022266 -26.675824 31.944227 15.107281 9.923800 -7.125000 0.000000 0.000000 5.284300 48.318800 0.433800 -1.777976 1.786564 1.234725 76.120762 9.497456 -1.757852 -21.767942 33.977058 -10.541701 1.563638 -1.180309 -19.632373 -37.213322 33.237743 -24.226000 7.125000 0.000000 0.000000 -2.822400 11.436000 -3.329600 
-9.630449 15.238846 1.174412 178.029231 -49.830146 176.634770 4.314819 -0.171969 -2.784825 -9.466780 15.183041 -40.743527 10.865857 19.032576 62.687489 0.039093 1.015579 0.383424 1.219400 -7.004400 -19.728500 -5.146933 -0.714494 -1.881083 -5.101745 -2.143223 -20.013594 -15.522412 -19.240832 73.850587 3.299106 -14.913879 -3.173980 -1.617100 8.018300 -22.769700 -1.494179 3.985106 34.577801 0.180848 3.331207 -1.522805 1.175149 0.557533 1.380850 -8.489138 2.242810 -8.847986 3.540642 3.652844 3.946230 6.643700 2.825100 -1.207900 -1.444730 -0.269267 1.433607 -63.332295 -1.443259 25.100668 55.148287 -54.274352 -35.446953 -0.726977 -1.043323 -25.382773 31.850676 14.083563 9.305200 -7.125000 0.000000 0.000000 5.224000 47.201400 0.284500 -1.824879 1.852971 1.321897 75.301049 9.399094 -2.136038 -20.521577 32.908252 -9.831137 1.559360 -1.255180 -18.438205 -36.780407 33.195567 -23.904500 7.125000 0.000000 0.000000 -2.596100 11.287400 -3.056800 
-10.127922 15.252264 1.219922 177.972538 -49.326641 176.443212 4.224672 -0.166506 -2.647150 -10.215861 15.990047 -40.263499 11.542424 19.260142 64.779389 0.240610 0.317119 -1.796168 1.188800 -6.919100 -19.475800 -5.160051 -0.544457 -2.022648 -3.472308 -3.832482 -22.765176 -15.757383 -19.512136 74.794414 3.061248 -14.054752 -4.078252 -3.216400 11.037300 -32.405900 -1.229954 3.691399 34.587162 0.201436 3.052269 -1.537841 1.152061 0.411967 1.371795 -8.692912 2.553260 -8.950187 3.194427 4.176435 4.186663 6.508400 3.058700 -1.065600 -1.578700 -0.269205 1.413981 -62.171521 -1.311995 24.383993 53.368122 -53.659469 -34.100453 -0.727721 -1.074782 -24.339799 31.647005 13.661310 9.015300 -7.125000 0.000000 0.000000 5.046000 46.750400 0.218500 -1.728106 1.819115 1.242094 74.038853 7.753633 0.611515 -20.958195 33.625617 -10.134026 1.618992 -1.151372 -19.824658 -36.814111 32.080146 -23.328800 7.125000 0.000000 0.000000 -2.956000 10.054300 -3.430900 
